<mxfile host="app.diagrams.net" modified="2023-04-07T16:24:15.476Z" agent="Mozilla/5.0 (Windows NT 10.0; Win64; x64) AppleWebKit/537.36 (KHTML, like Gecko) Chrome/111.0.0.0 Safari/537.36" etag="2GuRrVN3bdXGrUplXW6K" version="21.1.4" type="device">
  <diagram name="Trang-1" id="QVp6x_FMiaOgDwpQ0YjE">
    <mxGraphModel dx="794" dy="-707" grid="1" gridSize="10" guides="1" tooltips="1" connect="1" arrows="1" fold="1" page="1" pageScale="1" pageWidth="827" pageHeight="1169" math="0" shadow="0">
      <root>
        <mxCell id="0" />
        <mxCell id="1" parent="0" />
        <mxCell id="WtnOw_cwj3Y-VOH0mIfo-1" value="&lt;p style=&quot;margin:0px;margin-top:4px;text-align:center;&quot;&gt;&lt;b&gt;Product&lt;/b&gt;&lt;/p&gt;&lt;hr size=&quot;1&quot;&gt;&lt;p style=&quot;margin:0px;margin-left:4px;&quot;&gt;Product_id&lt;/p&gt;&lt;p style=&quot;margin:0px;margin-left:4px;&quot;&gt;&lt;span style=&quot;background-color: initial;&quot;&gt;Product_name&lt;/span&gt;&lt;/p&gt;&lt;p style=&quot;margin:0px;margin-left:4px;&quot;&gt;Quantity&lt;/p&gt;&lt;hr size=&quot;1&quot;&gt;&lt;p style=&quot;margin:0px;margin-left:4px;&quot;&gt;&lt;br&gt;&lt;/p&gt;" style="verticalAlign=top;align=left;overflow=fill;fontSize=12;fontFamily=Helvetica;html=1;whiteSpace=wrap;" parent="1" vertex="1">
          <mxGeometry x="539.5" y="1260" width="105.5" height="107.5" as="geometry" />
        </mxCell>
        <mxCell id="WtnOw_cwj3Y-VOH0mIfo-2" value="&lt;p style=&quot;margin:0px;margin-top:4px;text-align:center;&quot;&gt;&lt;b&gt;Oder Details&lt;/b&gt;&lt;/p&gt;&lt;hr size=&quot;1&quot;&gt;&lt;p style=&quot;margin:0px;margin-left:4px;&quot;&gt;Oders_id&lt;/p&gt;&lt;p style=&quot;margin:0px;margin-left:4px;&quot;&gt;ProductType_id&lt;/p&gt;&lt;p style=&quot;margin:0px;margin-left:4px;&quot;&gt;Price&lt;/p&gt;&lt;p style=&quot;margin:0px;margin-left:4px;&quot;&gt;Quantity&lt;/p&gt;&lt;hr size=&quot;1&quot;&gt;&lt;p style=&quot;margin:0px;margin-left:4px;&quot;&gt;&lt;br&gt;&lt;/p&gt;" style="verticalAlign=top;align=left;overflow=fill;fontSize=12;fontFamily=Helvetica;html=1;whiteSpace=wrap;" parent="1" vertex="1">
          <mxGeometry x="358.63" y="1260" width="108.75" height="115" as="geometry" />
        </mxCell>
        <mxCell id="WtnOw_cwj3Y-VOH0mIfo-3" value="&lt;p style=&quot;margin:0px;margin-top:4px;text-align:center;&quot;&gt;&lt;b&gt;Customers&lt;/b&gt;&lt;/p&gt;&lt;hr size=&quot;1&quot;&gt;&lt;p style=&quot;margin:0px;margin-left:4px;&quot;&gt;Customer_id&lt;/p&gt;&lt;p style=&quot;margin:0px;margin-left:4px;&quot;&gt;Customer_name&lt;/p&gt;&lt;p style=&quot;margin:0px;margin-left:4px;&quot;&gt;Phone&lt;/p&gt;&lt;p style=&quot;margin:0px;margin-left:4px;&quot;&gt;Address&lt;/p&gt;&lt;hr size=&quot;1&quot;&gt;&lt;p style=&quot;margin:0px;margin-left:4px;&quot;&gt;Search()&lt;/p&gt;&lt;p style=&quot;margin:0px;margin-left:4px;&quot;&gt;Add to cart()&lt;/p&gt;&lt;p style=&quot;margin:0px;margin-left:4px;&quot;&gt;Oders()&lt;/p&gt;&lt;p style=&quot;margin:0px;margin-left:4px;&quot;&gt;&lt;br&gt;&lt;/p&gt;" style="verticalAlign=top;align=left;overflow=fill;fontSize=12;fontFamily=Helvetica;html=1;whiteSpace=wrap;" parent="1" vertex="1">
          <mxGeometry x="198" y="1570" width="105.5" height="150" as="geometry" />
        </mxCell>
        <mxCell id="WtnOw_cwj3Y-VOH0mIfo-4" value="&lt;p style=&quot;margin:0px;margin-top:4px;text-align:center;&quot;&gt;&lt;b&gt;Suppliers&lt;/b&gt;&lt;/p&gt;&lt;hr size=&quot;1&quot;&gt;&lt;p style=&quot;margin:0px;margin-left:4px;&quot;&gt;Suppliers_id&lt;/p&gt;&lt;p style=&quot;margin:0px;margin-left:4px;&quot;&gt;Suppliers_name&lt;/p&gt;&lt;p style=&quot;margin:0px;margin-left:4px;&quot;&gt;Phone&lt;/p&gt;&lt;p style=&quot;margin:0px;margin-left:4px;&quot;&gt;Address&lt;/p&gt;&lt;p style=&quot;margin:0px;margin-left:4px;&quot;&gt;Website&lt;/p&gt;&lt;hr size=&quot;1&quot;&gt;&lt;p style=&quot;margin:0px;margin-left:4px;&quot;&gt;&lt;br&gt;&lt;/p&gt;" style="verticalAlign=top;align=left;overflow=fill;fontSize=12;fontFamily=Helvetica;html=1;whiteSpace=wrap;" parent="1" vertex="1">
          <mxGeometry x="539.5" y="1550" width="105.5" height="130" as="geometry" />
        </mxCell>
        <mxCell id="WtnOw_cwj3Y-VOH0mIfo-5" value="&lt;p style=&quot;margin:0px;margin-top:4px;text-align:center;&quot;&gt;&lt;b&gt;Product Type&lt;/b&gt;&lt;/p&gt;&lt;hr size=&quot;1&quot;&gt;&lt;p style=&quot;margin:0px;margin-left:4px;&quot;&gt;ProductType_id&lt;/p&gt;&lt;p style=&quot;margin:0px;margin-left:4px;&quot;&gt;Product_id&lt;/p&gt;&lt;p style=&quot;margin:0px;margin-left:4px;&quot;&gt;Suppliers_id&lt;br&gt;&lt;/p&gt;&lt;p style=&quot;margin:0px;margin-left:4px;&quot;&gt;ProductType_name&lt;br&gt;&lt;/p&gt;&lt;p style=&quot;margin:0px;margin-left:4px;&quot;&gt;size&lt;/p&gt;&lt;p style=&quot;margin:0px;margin-left:4px;&quot;&gt;color&lt;/p&gt;&lt;hr size=&quot;1&quot;&gt;&lt;p style=&quot;margin:0px;margin-left:4px;&quot;&gt;&lt;br&gt;&lt;/p&gt;" style="verticalAlign=top;align=left;overflow=fill;fontSize=12;fontFamily=Helvetica;html=1;whiteSpace=wrap;" parent="1" vertex="1">
          <mxGeometry x="524.5" y="1400" width="120.5" height="117.5" as="geometry" />
        </mxCell>
        <mxCell id="WtnOw_cwj3Y-VOH0mIfo-6" value="&lt;p style=&quot;margin:0px;margin-top:4px;text-align:center;&quot;&gt;&lt;b&gt;Oders&lt;/b&gt;&lt;/p&gt;&lt;hr size=&quot;1&quot;&gt;&lt;p style=&quot;margin:0px;margin-left:4px;&quot;&gt;Oders_id&lt;/p&gt;&lt;p style=&quot;margin:0px;margin-left:4px;&quot;&gt;Staffs_id&lt;/p&gt;&lt;p style=&quot;margin:0px;margin-left:4px;&quot;&gt;Customers_id&lt;/p&gt;&lt;p style=&quot;margin:0px;margin-left:4px;&quot;&gt;Oder_date&lt;/p&gt;&lt;p style=&quot;margin:0px;margin-left:4px;&quot;&gt;Status&lt;/p&gt;&lt;hr size=&quot;1&quot;&gt;&lt;p style=&quot;margin:0px;margin-left:4px;&quot;&gt;&lt;br&gt;&lt;/p&gt;" style="verticalAlign=top;align=left;overflow=fill;fontSize=12;fontFamily=Helvetica;html=1;whiteSpace=wrap;" parent="1" vertex="1">
          <mxGeometry x="198" y="1420" width="110" height="130" as="geometry" />
        </mxCell>
        <mxCell id="WtnOw_cwj3Y-VOH0mIfo-7" value="&lt;p style=&quot;margin:0px;margin-top:4px;text-align:center;&quot;&gt;&lt;b&gt;Staffs&lt;/b&gt;&lt;/p&gt;&lt;hr size=&quot;1&quot;&gt;&lt;p style=&quot;margin:0px;margin-left:4px;&quot;&gt;Staffs_id&lt;/p&gt;&lt;p style=&quot;margin:0px;margin-left:4px;&quot;&gt;Staffs_name&lt;/p&gt;&lt;p style=&quot;margin:0px;margin-left:4px;&quot;&gt;UserName&lt;/p&gt;&lt;p style=&quot;margin:0px;margin-left:4px;&quot;&gt;PassWord&lt;/p&gt;&lt;hr size=&quot;1&quot;&gt;&lt;p style=&quot;margin:0px;margin-left:4px;&quot;&gt;ViewOders()&lt;/p&gt;&lt;p style=&quot;margin:0px;margin-left:4px;&quot;&gt;Oders()&lt;/p&gt;" style="verticalAlign=top;align=left;overflow=fill;fontSize=12;fontFamily=Helvetica;html=1;whiteSpace=wrap;" parent="1" vertex="1">
          <mxGeometry x="198" y="1260" width="110" height="140" as="geometry" />
        </mxCell>
        <mxCell id="WtnOw_cwj3Y-VOH0mIfo-8" value="" style="endArrow=none;html=1;edgeStyle=orthogonalEdgeStyle;rounded=0;entryX=0;entryY=0.5;entryDx=0;entryDy=0;exitX=0;exitY=0.5;exitDx=0;exitDy=0;" parent="1" source="WtnOw_cwj3Y-VOH0mIfo-6" target="WtnOw_cwj3Y-VOH0mIfo-7" edge="1">
          <mxGeometry relative="1" as="geometry">
            <mxPoint x="408" y="1460" as="sourcePoint" />
            <mxPoint x="568" y="1460" as="targetPoint" />
            <Array as="points">
              <mxPoint x="198" y="1470" />
              <mxPoint x="168" y="1470" />
              <mxPoint x="168" y="1330" />
            </Array>
          </mxGeometry>
        </mxCell>
        <mxCell id="WtnOw_cwj3Y-VOH0mIfo-9" value="0...n" style="edgeLabel;resizable=0;html=1;align=left;verticalAlign=bottom;" parent="WtnOw_cwj3Y-VOH0mIfo-8" connectable="0" vertex="1">
          <mxGeometry x="-1" relative="1" as="geometry">
            <mxPoint x="-30" y="-10" as="offset" />
          </mxGeometry>
        </mxCell>
        <mxCell id="WtnOw_cwj3Y-VOH0mIfo-10" value="1" style="edgeLabel;resizable=0;html=1;align=right;verticalAlign=bottom;" parent="WtnOw_cwj3Y-VOH0mIfo-8" connectable="0" vertex="1">
          <mxGeometry x="1" relative="1" as="geometry" />
        </mxCell>
        <mxCell id="WtnOw_cwj3Y-VOH0mIfo-11" value="" style="endArrow=none;html=1;edgeStyle=orthogonalEdgeStyle;rounded=0;exitX=0;exitY=0.5;exitDx=0;exitDy=0;" parent="1" source="WtnOw_cwj3Y-VOH0mIfo-3" edge="1">
          <mxGeometry relative="1" as="geometry">
            <mxPoint x="408" y="1560" as="sourcePoint" />
            <mxPoint x="198" y="1500" as="targetPoint" />
            <Array as="points">
              <mxPoint x="168" y="1665" />
              <mxPoint x="168" y="1500" />
            </Array>
          </mxGeometry>
        </mxCell>
        <mxCell id="WtnOw_cwj3Y-VOH0mIfo-12" value="1" style="edgeLabel;resizable=0;html=1;align=left;verticalAlign=bottom;" parent="WtnOw_cwj3Y-VOH0mIfo-11" connectable="0" vertex="1">
          <mxGeometry x="-1" relative="1" as="geometry">
            <mxPoint x="-40" y="25" as="offset" />
          </mxGeometry>
        </mxCell>
        <mxCell id="WtnOw_cwj3Y-VOH0mIfo-13" value="0...n" style="edgeLabel;resizable=0;html=1;align=right;verticalAlign=bottom;" parent="WtnOw_cwj3Y-VOH0mIfo-11" connectable="0" vertex="1">
          <mxGeometry x="1" relative="1" as="geometry">
            <mxPoint x="-30" y="20" as="offset" />
          </mxGeometry>
        </mxCell>
        <mxCell id="WtnOw_cwj3Y-VOH0mIfo-14" value="" style="endArrow=none;html=1;edgeStyle=orthogonalEdgeStyle;rounded=0;exitX=1.006;exitY=0.564;exitDx=0;exitDy=0;exitPerimeter=0;entryX=0;entryY=0.5;entryDx=0;entryDy=0;" parent="1" source="WtnOw_cwj3Y-VOH0mIfo-6" target="WtnOw_cwj3Y-VOH0mIfo-2" edge="1">
          <mxGeometry relative="1" as="geometry">
            <mxPoint x="328" y="1410" as="sourcePoint" />
            <mxPoint x="488" y="1410" as="targetPoint" />
          </mxGeometry>
        </mxCell>
        <mxCell id="WtnOw_cwj3Y-VOH0mIfo-15" value="1" style="edgeLabel;resizable=0;html=1;align=left;verticalAlign=bottom;" parent="WtnOw_cwj3Y-VOH0mIfo-14" connectable="0" vertex="1">
          <mxGeometry x="-1" relative="1" as="geometry">
            <mxPoint x="9" as="offset" />
          </mxGeometry>
        </mxCell>
        <mxCell id="WtnOw_cwj3Y-VOH0mIfo-16" value="1" style="edgeLabel;resizable=0;html=1;align=right;verticalAlign=bottom;" parent="WtnOw_cwj3Y-VOH0mIfo-14" connectable="0" vertex="1">
          <mxGeometry x="1" relative="1" as="geometry">
            <mxPoint x="-11" as="offset" />
          </mxGeometry>
        </mxCell>
        <mxCell id="WtnOw_cwj3Y-VOH0mIfo-17" value="" style="endArrow=none;html=1;edgeStyle=orthogonalEdgeStyle;rounded=0;entryX=0;entryY=0.5;entryDx=0;entryDy=0;" parent="1" target="WtnOw_cwj3Y-VOH0mIfo-5" edge="1">
          <mxGeometry relative="1" as="geometry">
            <mxPoint x="468" y="1320" as="sourcePoint" />
            <mxPoint x="488" y="1410" as="targetPoint" />
          </mxGeometry>
        </mxCell>
        <mxCell id="WtnOw_cwj3Y-VOH0mIfo-18" value="1" style="edgeLabel;resizable=0;html=1;align=left;verticalAlign=bottom;" parent="WtnOw_cwj3Y-VOH0mIfo-17" connectable="0" vertex="1">
          <mxGeometry x="-1" relative="1" as="geometry" />
        </mxCell>
        <mxCell id="WtnOw_cwj3Y-VOH0mIfo-19" value="0...n" style="edgeLabel;resizable=0;html=1;align=right;verticalAlign=bottom;" parent="WtnOw_cwj3Y-VOH0mIfo-17" connectable="0" vertex="1">
          <mxGeometry x="1" relative="1" as="geometry" />
        </mxCell>
        <mxCell id="WtnOw_cwj3Y-VOH0mIfo-20" value="" style="endArrow=none;html=1;edgeStyle=orthogonalEdgeStyle;rounded=0;exitX=1;exitY=0.5;exitDx=0;exitDy=0;entryX=1;entryY=0.5;entryDx=0;entryDy=0;" parent="1" source="WtnOw_cwj3Y-VOH0mIfo-1" target="WtnOw_cwj3Y-VOH0mIfo-5" edge="1">
          <mxGeometry relative="1" as="geometry">
            <mxPoint x="348" y="1460" as="sourcePoint" />
            <mxPoint x="508" y="1460" as="targetPoint" />
            <Array as="points">
              <mxPoint x="668" y="1314" />
              <mxPoint x="668" y="1459" />
            </Array>
          </mxGeometry>
        </mxCell>
        <mxCell id="WtnOw_cwj3Y-VOH0mIfo-21" value="1" style="edgeLabel;resizable=0;html=1;align=left;verticalAlign=bottom;" parent="WtnOw_cwj3Y-VOH0mIfo-20" connectable="0" vertex="1">
          <mxGeometry x="-1" relative="1" as="geometry" />
        </mxCell>
        <mxCell id="WtnOw_cwj3Y-VOH0mIfo-22" value="1" style="edgeLabel;resizable=0;html=1;align=right;verticalAlign=bottom;" parent="WtnOw_cwj3Y-VOH0mIfo-20" connectable="0" vertex="1">
          <mxGeometry x="1" relative="1" as="geometry">
            <mxPoint x="23" y="1" as="offset" />
          </mxGeometry>
        </mxCell>
        <mxCell id="WtnOw_cwj3Y-VOH0mIfo-23" value="" style="endArrow=none;html=1;edgeStyle=orthogonalEdgeStyle;rounded=0;entryX=1;entryY=0.75;entryDx=0;entryDy=0;exitX=1.003;exitY=0.621;exitDx=0;exitDy=0;exitPerimeter=0;" parent="1" source="WtnOw_cwj3Y-VOH0mIfo-4" target="WtnOw_cwj3Y-VOH0mIfo-5" edge="1">
          <mxGeometry relative="1" as="geometry">
            <mxPoint x="348" y="1460" as="sourcePoint" />
            <mxPoint x="508" y="1460" as="targetPoint" />
            <Array as="points">
              <mxPoint x="668" y="1631" />
              <mxPoint x="668" y="1488" />
            </Array>
          </mxGeometry>
        </mxCell>
        <mxCell id="WtnOw_cwj3Y-VOH0mIfo-24" value="1" style="edgeLabel;resizable=0;html=1;align=left;verticalAlign=bottom;" parent="WtnOw_cwj3Y-VOH0mIfo-23" connectable="0" vertex="1">
          <mxGeometry x="-1" relative="1" as="geometry" />
        </mxCell>
        <mxCell id="WtnOw_cwj3Y-VOH0mIfo-25" value="0...n" style="edgeLabel;resizable=0;html=1;align=right;verticalAlign=bottom;" parent="WtnOw_cwj3Y-VOH0mIfo-23" connectable="0" vertex="1">
          <mxGeometry x="1" relative="1" as="geometry">
            <mxPoint x="23" y="16" as="offset" />
          </mxGeometry>
        </mxCell>
      </root>
    </mxGraphModel>
  </diagram>
</mxfile>
